<?xml version="1.0" encoding="UTF-8" standalone="no"?>
<svg
   xmlns:dc="http://purl.org/dc/elements/1.1/"
   xmlns:cc="http://creativecommons.org/ns#"
   xmlns:rdf="http://www.w3.org/1999/02/22-rdf-syntax-ns#"
   xmlns:svg="http://www.w3.org/2000/svg"
   xmlns="http://www.w3.org/2000/svg"
   viewBox="0 0 793.70074 1122.5197"
   height="1122.5197"
   width="793.70074"
   xml:space="preserve"
   id="svg2"
   version="1.1"><metadata
     id="metadata8"><rdf:RDF><cc:Work
         rdf:about=""><dc:format>image/svg+xml</dc:format><dc:type
           rdf:resource="http://purl.org/dc/dcmitype/StillImage" /></cc:Work></rdf:RDF></metadata><defs
     id="defs6" /><g
     transform="matrix(1.3333333,0,0,-1.3333333,0,1122.5197)"
     id="g10"><g
       transform="scale(1,-1)"
       id="g12"><path
         id="path14"
         style="fill:none;stroke:#215d85;stroke-width:2;stroke-linecap:butt;stroke-linejoin:round;stroke-miterlimit:4;stroke-dasharray:11, 8;stroke-dashoffset:0;stroke-opacity:1"
         d="m 554.40723,-255.71289 c 0,62.4082 -50.5918,113 -113,113 -62.40821,0 -113,-50.5918 -113,-113 0,-62.4082 50.59179,-113 113,-113 62.4082,0 113,50.5918 113,113 z" /><g
         transform="scale(1,-1)"
         id="g16"><text
           id="text20"
           style="font-variant:normal;font-weight:normal;font-size:26px;font-family:HGPGothicM;-inkscape-font-specification:HGPGothicM;writing-mode:lr-tb;fill:#215d85;fill-opacity:1;fill-rule:nonzero;stroke:none"
           transform="matrix(1,0,0,-1,362.54395,267.47461)"><tspan
             id="tspan18"
             y="0"
             x="0 23.166 44.382 58.812 83.694 108.368 133.04201">エンドユーザー</tspan></text>
<text
           id="text24"
           style="font-variant:normal;font-weight:normal;font-size:26px;font-family:HGPGothicM;-inkscape-font-specification:HGPGothicM;writing-mode:lr-tb;fill:#215d85;fill-opacity:1;fill-rule:nonzero;stroke:none"
           transform="matrix(1,0,0,-1,398.24316,221.97461)"><tspan
             id="tspan22"
             y="0"
             x="0 24.674 48.646 73.32">サポート</tspan></text>
</g></g></g></svg>